/* XPM */
static char * si_xpm[] = {
"22 22 92 2",
"  	c None",
". 	c #000000",
"+ 	c #0D0D0D",
"@ 	c #202020",
"# 	c #080808",
"$ 	c #444444",
"% 	c #949494",
"& 	c #BEBEBE",
"* 	c #C6C6C6",
"= 	c #929292",
"- 	c #434343",
"; 	c #1F1F1F",
"> 	c #919191",
", 	c #D1D1D1",
"' 	c #D9D9D9",
") 	c #D0D0D0",
"! 	c #909090",
"~ 	c #1E1E1E",
"{ 	c #A8A8A8",
"] 	c #A7A7A7",
"^ 	c #D6D6D6",
"/ 	c #B0B0B0",
"( 	c #8E8E8E",
"_ 	c #6F6F6F",
": 	c #686868",
"< 	c #C5C5C5",
"[ 	c #D8D8D8",
"} 	c #939393",
"| 	c #454545",
"1 	c #ADADAD",
"2 	c #101010",
"3 	c #2B2B2B",
"4 	c #010101",
"5 	c #959595",
"6 	c #B9B9B9",
"7 	c #414141",
"8 	c #424242",
"9 	c #040404",
"0 	c #4C4C4C",
"a 	c #D5D5D5",
"b 	c #979797",
"c 	c #111111",
"d 	c #C0C0C0",
"e 	c #CFCFCF",
"f 	c #0B0B0B",
"g 	c #262626",
"h 	c #242424",
"i 	c #C8C8C8",
"j 	c #AAAAAA",
"k 	c #151515",
"l 	c #BCBCBC",
"m 	c #252525",
"n 	c #383838",
"o 	c #353535",
"p 	c #282828",
"q 	c #C7C7C7",
"r 	c #131313",
"s 	c #C1C1C1",
"t 	c #B8B8B8",
"u 	c #0F0F0F",
"v 	c #020202",
"w 	c #636363",
"x 	c #565656",
"y 	c #373737",
"z 	c #9C9C9C",
"A 	c #2C2C2C",
"B 	c #030303",
"C 	c #C9C9C9",
"D 	c #9E9E9E",
"E 	c #D3D3D3",
"F 	c #A0A0A0",
"G 	c #505050",
"H 	c #3B3B3B",
"I 	c #1C1C1C",
"J 	c #707070",
"K 	c #4D4D4D",
"L 	c #999999",
"M 	c #C4C4C4",
"N 	c #A9A9A9",
"O 	c #D4D4D4",
"P 	c #9A9A9A",
"Q 	c #AFAFAF",
"R 	c #AEAEAE",
"S 	c #9B9B9B",
"T 	c #0C0C0C",
"U 	c #A1A1A1",
"V 	c #C2C2C2",
"W 	c #CACACA",
"X 	c #9F9F9F",
"Y 	c #4E4E4E",
"Z 	c #161616",
"` 	c #292929",
". . . . . . . . . . . . . . . . . . . . . . ",
". . . . . . . . . . . . . . . . . . . . . . ",
". . . . . . . . . + @ @ + . . . . . . . . . ",
". . . . . . # $ % & * * & = - # . . . . . . ",
". . . . . ; > , ' ' ' ' ' ' ) ! ~ . . . . . ",
". . . . ; { ' ' ' ' ' ' ' ' ' ' ] ; . . . . ",
". . . # = ' ' ^ / ( _ : > < [ ' ' } # . . . ",
". . . | , ' ' 1 2 . . . . 3 / ' ' , | . . . ",
". . 4 5 ' ' ' 6 7 | 8 9 . . 0 a ' ' b 4 . . ",
". . c d ' ' ' ' e ] _ f . . g < ' ' d 2 . . ",
". . h i ' ' ' j ; . . . . . k l ' ' i m . . ",
". . m i ' ' < g . 4 n o 4 . p q ' ' i m . . ",
". . r s ' ' t u . v w x 4 . y e ' ' s r . . ",
". . 4 z ' ' i A . . B B . . A C ' ' D 4 . . ",
". . . 0 E ' [ F g v h G H I J a ' E K . . . ",
". . . f L ' ' [ M N M [ e d O ' ' P f . . . ",
". . . . m Q ' ' ' ' ' ' ' ' ' ' R h . . . . ",
". . . . . g S E ' ' ' ' ' ' E S m . . . . . ",
". . . . . . T G U V W W V X Y f . . . . . . ",
". . . . . . . . 4 Z ` ` k 4 . . . . . . . . ",
". . . . . . . . . . . . . . . . . . . . . . ",
". . . . . . . . . . . . . . . . . . . . . . "};
