/* XPM */
static char * si_xpm[] = {
"48 48 199 2",
"  	c None",
". 	c #000000",
"+ 	c #191919",
"@ 	c #2D2D2D",
"# 	c #353535",
"$ 	c #373737",
"% 	c #2C2C2C",
"& 	c #202020",
"* 	c #404040",
"= 	c #595959",
"- 	c #6E6E6E",
"; 	c #828282",
"> 	c #929292",
", 	c #989898",
"' 	c #9A9A9A",
") 	c #919191",
"! 	c #585858",
"~ 	c #3E3E3E",
"{ 	c #1F1F1F",
"] 	c #080808",
"^ 	c #1D1D1D",
"/ 	c #797979",
"( 	c #AFAFAF",
"_ 	c #D7D7D7",
": 	c #E8E8E8",
"< 	c #E5E5E5",
"[ 	c #E3E3E3",
"} 	c #E2E2E2",
"| 	c #E7E7E7",
"1 	c #D5D5D5",
"2 	c #ADADAD",
"3 	c #767676",
"4 	c #3C3C3C",
"5 	c #1C1C1C",
"6 	c #010101",
"7 	c #020202",
"8 	c #979797",
"9 	c #DBDBDB",
"0 	c #D9D9D9",
"a 	c #D6D6D6",
"b 	c #969696",
"c 	c #8B8B8B",
"d 	c #C2C2C2",
"e 	c #D4D4D4",
"f 	c #DADADA",
"g 	c #C1C1C1",
"h 	c #898989",
"i 	c #1B1B1B",
"j 	c #050505",
"k 	c #393939",
"l 	c #9B9B9B",
"m 	c #CECECE",
"n 	c #DEDEDE",
"o 	c #DDDDDD",
"p 	c #CDCDCD",
"q 	c #383838",
"r 	c #3F3F3F",
"s 	c #9C9C9C",
"t 	c #E1E1E1",
"u 	c #3A3A3A",
"v 	c #9D9D9D",
"w 	c #DCDCDC",
"x 	c #1E1E1E",
"y 	c #040404",
"z 	c #8C8C8C",
"A 	c #CFCFCF",
"B 	c #DFDFDF",
"C 	c #C4C4C4",
"D 	c #B1B1B1",
"E 	c #A5A5A5",
"F 	c #6F6F6F",
"G 	c #636363",
"H 	c #666666",
"I 	c #777777",
"J 	c #959595",
"K 	c #C5C5C5",
"L 	c #E0E0E0",
"M 	c #D0D0D0",
"N 	c #8F8F8F",
"O 	c #434343",
"P 	c #C3C3C3",
"Q 	c #A9A9A9",
"R 	c #616161",
"S 	c #414141",
"T 	c #3B3B3B",
"U 	c #363636",
"V 	c #282828",
"W 	c #151515",
"X 	c #161616",
"Y 	c #696969",
"Z 	c #A1A1A1",
"` 	c #424242",
" .	c #999999",
"..	c #B9B9B9",
"+.	c #4B4B4B",
"@.	c #070707",
"#.	c #CBCBCB",
"$.	c #D8D8D8",
"%.	c #8A8A8A",
"&.	c #0B0B0B",
"*.	c #939393",
"=.	c #212121",
"-.	c #7B7B7B",
";.	c #CACACA",
">.	c #838383",
",.	c #A6A6A6",
"'.	c #E4E4E4",
").	c #7E7E7E",
"!.	c #232323",
"~.	c #B3B3B3",
"{.	c #BDBDBD",
"].	c #565656",
"^.	c #2B2B2B",
"/.	c #313131",
"(.	c #444444",
"_.	c #3D3D3D",
":.	c #1A1A1A",
"<.	c #B6B6B6",
"[.	c #5D5D5D",
"}.	c #B2B2B2",
"|.	c #9F9F9F",
"1.	c #ABABAB",
"2.	c #0F0F0F",
"3.	c #656565",
"4.	c #5E5E5E",
"5.	c #EBEBEB",
"6.	c #C8C8C8",
"7.	c #B4B4B4",
"8.	c #141414",
"9.	c #AAAAAA",
"0.	c #757575",
"a.	c #B0B0B0",
"b.	c #2F2F2F",
"c.	c #0E0E0E",
"d.	c #333333",
"e.	c #949494",
"f.	c #888888",
"g.	c #9E9E9E",
"h.	c #060606",
"i.	c #030303",
"j.	c #848484",
"k.	c #CCCCCC",
"l.	c #252525",
"m.	c #7D7D7D",
"n.	c #292929",
"o.	c #8E8E8E",
"p.	c #A3A3A3",
"q.	c #A0A0A0",
"r.	c #4E4E4E",
"s.	c #323232",
"t.	c #242424",
"u.	c #464646",
"v.	c #131313",
"w.	c #545454",
"x.	c #262626",
"y.	c #8D8D8D",
"z.	c #737373",
"A.	c #4A4A4A",
"B.	c #BFBFBF",
"C.	c #F3F3F3",
"D.	c #646464",
"E.	c #7A7A7A",
"F.	c #727272",
"G.	c #181818",
"H.	c #5B5B5B",
"I.	c #525252",
"J.	c #6C6C6C",
"K.	c #C9C9C9",
"L.	c #0D0D0D",
"M.	c #0C0C0C",
"N.	c #BCBCBC",
"O.	c #484848",
"P.	c #494949",
"Q.	c #4D4D4D",
"R.	c #ACACAC",
"S.	c #BEBEBE",
"T.	c #121212",
"U.	c #818181",
"V.	c #4C4C4C",
"W.	c #7F7F7F",
"X.	c #5A5A5A",
"Y.	c #303030",
"Z.	c #222222",
"`.	c #C0C0C0",
" +	c #A7A7A7",
".+	c #686868",
"++	c #505050",
"@+	c #7C7C7C",
"#+	c #D2D2D2",
"$+	c #E6E6E6",
"%+	c #B8B8B8",
"&+	c #D3D3D3",
"*+	c #515151",
"=+	c #0A0A0A",
"-+	c #2E2E2E",
";+	c #AEAEAE",
">+	c #272727",
",+	c #909090",
"'+	c #090909",
". . . . . . . . . . . . . . . . . . . . . . . . . . . . . . . . . . . . . . . . . . . . . . . . ",
". . . . . . . . . . . . . . . . . . . . . . . . . . . . . . . . . . . . . . . . . . . . . . . . ",
". . . . . . . . . . . . . . . . . . . . . . . . . . . . . . . . . . . . . . . . . . . . . . . . ",
". . . . . . . . . . . . . . . . . . . . . . . . . . . . . . . . . . . . . . . . . . . . . . . . ",
". . . . . . . . . . . . . . . . . . . . . + @ # $ # % + . . . . . . . . . . . . . . . . . . . . ",
". . . . . . . . . . . . . . . . . & * = - ; > , ' , ) ; - ! ~ { . . . . . . . . . . . . . . . . ",
". . . . . . . . . . . . . . ] ^ ~ / ( _ : < [ } } } [ < | 1 2 3 4 5 ] . . . . . . . . . . . . . ",
". . . . . . . . . . . . 6 7 * 8 _ 9 9 0 0 0 0 0 0 0 0 0 0 0 9 9 a b * 7 6 . . . . . . . . . . . ",
". . . . . . . . . . . . 5 c d e f f f 0 0 0 0 0 0 0 0 0 0 0 f f f e g h i . . . . . . . . . . . ",
". . . . . . . . . . j k l m n o 0 0 0 0 0 0 0 0 0 0 0 0 0 0 0 0 0 o n p ' q j . . . . . . . . . ",
". . . . . . . . . j r s } n f 0 0 0 0 0 0 0 0 0 0 0 0 0 0 0 0 0 0 0 f n t l ~ j . . . . . . . . ",
". . . . . . . . . u v : 0 0 0 0 0 0 0 f f f 9 9 w 9 9 9 f 0 0 0 0 0 0 0 0 : l k . . . . . . . . ",
". . . . . . . 6 x s } 0 0 0 0 0 0 0 0 0 0 0 0 0 0 0 0 0 0 0 0 0 0 0 0 0 0 0 t s { 6 . . . . . . ",
". . . . . . . y z A n 0 0 0 0 0 f B 0 C D E h F G H I J K L t f 0 0 0 0 0 0 n M N y . . . . . . ",
". . . . . . ] O P n f 0 0 0 0 o _ Q R S T U V i W X x @ O Y Z 9 w f 0 0 0 0 0 B C ` ] . . . . . ",
". . . . . . ^  .1 o 0 0 0 0 f 0 ..+.7 . . . . . . . . . . @.* c #.9 0 0 0 0 0 o e , ^ . . . . . ",
". . . . . . r $.9 0 0 0 0 0 o p %.. . . . . . . . . . . . . . &.*.M o 0 0 0 0 0 9 $.* . . . . . ",
". . . . . =.-.9 f 0 0 0 0 0 n ;.>.6 . . . . . . . . . . . . . 7 @ ,.'.0 0 0 0 0 f 9 ).!.. . . . ",
". . . . . S ~.f f 0 0 0 0 0 f f {.].^./.` O (._.:.. . . . . . . . >.f f 0 0 0 0 f f <.O . . . . ",
". . . . . [.f 0 0 0 0 0 0 0 0 w $.}.' |.1.( ~...Y 2.. . . . . . . 3.C o 0 0 0 0 0 0 9 4.. . . . ",
". . . . ] 3 : 0 0 0 0 0 0 0 0 0 f [ 5.'.a 6.<.7.Y 8.. . . . . . . +.9.B 0 0 0 0 0 0 : 0.@.. . . ",
". . . . !.%.'.0 0 0 0 0 0 0 0 0 0 e #.a.z 3.b.c.. . . . . . . . . d.e.t 0 0 0 0 0 0 '.f.=.. . . ",
". . . . # , } 0 0 0 0 0 0 0 0 o a g.U &.@.h.i.6 . . . . . . . . . =.j.[ 0 0 0 0 0 0 } 8 d.. . . ",
". . . . _.|.t 0 0 0 0 0 0 0 L k.%.l.i.. . . . . . . . . . . . . . :.m.[ 0 0 0 0 0 0 t |.~ . . . ",
". . . . * Z t 0 0 0 0 0 0 f $.8 n.. . . . . . . . . . . . . . . . @ o.} 0 0 0 0 0 0 t p.` . . . ",
". . . . r q.t 0 0 0 0 0 0 n D r.. . . . . 6 ] l.s.t.h.. . . . . . u.,.B 0 0 0 0 0 0 t Z * . . . ",
". . . . $ ' } 0 0 0 0 0 0 '.I v.. . . . . i.V q.a l + 7 . . . . . w.~.n 0 0 0 0 0 0 } , # . . . ",
". . . . x.y.[ 0 0 0 0 0 0 '.z.2.. . . . . h.A.B.C.}.& 7 . . . . . D.d o 0 0 0 0 0 0 [ c l.. . . ",
". . . . c.E.: 0 0 0 0 0 0 '.F.2.. . . . . 7 G.H.3 I.] . . . . . . J.K.w 0 0 0 0 0 0 | E.L.. . . ",
". . . . . G B 0 0 0 0 0 0 [ j.=.. . . . . . . 2.X M.. . . . . . . 4.N.o 0 0 0 0 0 0 L D.. . . . ",
". . . . . O.B.f f 0 0 0 0 B Q O.. . . . . . . . . . . . . . . . . P.Q B 0 0 0 0 f f d A.. . . . ",
". . . . . n.f.9 f 0 0 0 0 9 1 ).. . . . . . . . . . 6 . . . . . . Q.R.B 0 0 0 0 f 9 c ^.. . . . ",
". . . . . j A.o 9 0 0 0 0 0 o S.J.i.. . . . . . . . T.. . . . . 6 U.a 9 0 0 0 0 9 o V.h.. . . . ",
". . . . . . t.Q a w 0 0 0 0 9 _ B.W.U j . . + +.0.) l z X.Y.Z.u ).`.o 0 0 0 0 w 1  +t.. . . . . ",
". . . . . . &.I.6.B 0 0 0 0 0 9 n e , .+r.++@+1.#+$+$+t %+) j.l &+o f 0 0 0 0 B K.*+&.. . . . . ",
". . . . . . . ]  .e o 0 0 0 0 0 0 9 t } 9 1 } L 9 0 0 f n t [ t 9 0 0 0 0 0 o e l =+. . . . . . ",
". . . . . . . 6 -+E [ 0 0 0 0 0 0 0 0 0 0 0 0 0 0 0 0 0 0 0 0 0 0 0 0 0 0 0 [ E -+6 . . . . . . ",
". . . . . . . . . +.1.$+0 0 0 0 0 0 0 0 0 0 0 0 0 0 0 0 0 0 0 0 0 0 0 0 0 | 9.A.. . . . . . . . ",
". . . . . . . . . &.r.R.[ o 0 0 0 0 0 0 0 0 0 0 0 0 0 0 0 0 0 0 0 0 0 o [ 9.Q.=+. . . . . . . . ",
". . . . . . . . . . M.V. +1 B w 0 0 0 0 0 0 0 0 0 0 0 0 0 0 0 0 0 w B 1 ,.A.&.. . . . . . . . . ",
". . . . . . . . . . . 6 /.v ;.a 9 f 0 0 0 0 0 0 0 0 0 0 0 0 0 f 9 a ;.l Y.. . . . . . . . . . . ",
". . . . . . . . . . . . 6 M.! ;+n 9 f 0 0 0 0 0 0 0 0 0 0 0 f 9 B 2 ].&.6 . . . . . . . . . . . ",
". . . . . . . . . . . . . . M.>+*+,+6.} $+[ t L L L t [ | t K o.r.x.M.. . . . . . . . . . . . . ",
". . . . . . . . . . . . . . . . '+-+Q..+W.) |. +9. +|.) ).H +.% @.. . . . . . . . . . . . . . . ",
". . . . . . . . . . . . . . . . . . . . 8.% _.O.V.O._.% v.. . . . . . . . . . . . . . . . . . . ",
". . . . . . . . . . . . . . . . . . . . . . . . . . . . . . . . . . . . . . . . . . . . . . . . ",
". . . . . . . . . . . . . . . . . . . . . . . . . . . . . . . . . . . . . . . . . . . . . . . . ",
". . . . . . . . . . . . . . . . . . . . . . . . . . . . . . . . . . . . . . . . . . . . . . . . "};
