/* XPM */
static char * FB_logo_xpm[] = {
"66 62 65 1",
" 	c None",
".	c #2C2617",
"+	c #866202",
"@	c #BA941E",
"#	c #AB9650",
"$	c #FDEA8F",
"%	c #A0966E",
"&	c #CAB776",
"*	c #C6BA92",
"=	c #F3DD8F",
"-	c #7B7566",
";	c #5F5530",
">	c #FBEDBC",
",	c #916804",
"'	c #CDB255",
")	c #D9B83B",
"!	c #E5D08F",
"~	c #907826",
"{	c #502F02",
"]	c #ECE8DE",
"^	c #EEDDA6",
"/	c #DCBF51",
"(	c #FCF3D5",
"_	c #CFAC30",
":	c #524A2D",
"<	c #D6CDB6",
"[	c #AE860E",
"}	c #B4B2AA",
"|	c #D9C277",
"1	c #605947",
"2	c #D6D6D5",
"3	c #DEDDDA",
"4	c #474334",
"5	c #F1F0ED",
"6	c #C8A62D",
"7	c #9D8949",
"8	c #F4D95F",
"9	c #9E9B90",
"0	c #FCFBF8",
"a	c #73683F",
"b	c #C8C0A5",
"c	c #6B5B23",
"d	c #E7CF77",
"e	c #CBCCCD",
"f	c #6E4B03",
"g	c #5D3C02",
"h	c #8A7B41",
"i	c #B9B8B5",
"j	c #C39F24",
"k	c #8F886F",
"l	c #D2D2D3",
"m	c #AEAB9E",
"n	c #EFE0C1",
"o	c #3B362D",
"p	c #A78934",
"q	c #817646",
"r	c #A37908",
"s	c #C6C5C4",
"t	c #BCA553",
"u	c #E9CB54",
"v	c #442B08",
"w	c #F4DC74",
"x	c #B8A675",
"y	c #7D5702",
"z	c #B68E14",
"                                                                  ",
"                    eellllllleee                                  ",
"               ee222e}9-----%9ie22lleee                           ",
"            el2e}-::ch@'//|u|t#hqa-kmbellee                   eee ",
"          ell}a4+p_66'&'tjzzzj_u8$$8##qh9mellee            ee2s9e ",
"         e2m4c[j&3]55]322333<<t[[[juw$$8)thkk}ellleeeeeel222}ao73 ",
"       e2s;:@t2503essseseessee23<|z[[6uww888uthqa%mbseei9-:4q@t05s",
"      elm.@@e05ssss            see2b6z[@u$888ww$$|#qhach7b(8rx0]se",
"     e2k;z#50lss                  eeebj@[@/$8888w=$$$>$>($rfx03ss ",
"    elk1zx05ss                 eel2232l&jzrzw=88dw==!^>$6ggx03ss  ",
"    l9;[903se               el2eik-:;g7e*_jrr@!$wd88=$'gv{#03s    ",
"   lio670]ss              e2sk1;q[z&3003ei_jzr,@d>$$_yv{g#03s     ",
"  e24'r]5ss             e2i;:x!z,x]03eesees'j@r,,j)y{{{gp0]ss     ",
"  l9a[s0se            el214b0r{fb03ese    ss'6@[,,+vggg,55ss      ",
" e24'#03s            elmo90=yvfs02ss       es*6@zr+{gg+30es       ",
" eia[30ss           el9o<0^gvf*02s          ee*_@@rggf#0ls        ",
" lk@p02s            l}on0(g{fp03s    el2222lllls'j@rf,n5s         ",
" l1j*0s            lb.n00,vg,30ss  ellm14;cqaq%ss&j@,,0ls         ",
" l1j3]s           ee4b(0dvgyr02s  el9o-<(((>$$u#xsb_@r0se         ",
" lcj02s           e%a>50rvg,x0s  el1a=u_@j6)8=8u//<e'z0s          ",
" la60se          el4n]n(ggf,<0s ll4k6,,rrr[r[)wu__/2eb0e          ",
" ea60b           e}1>n(!vgf,2nsel17z@s]5]3&j@zz8)6@|2sls          ",
" 2q60s           la*>n5/vgy[n3sl9;@l0]2ss e<'6z[6rr@^le           ",
" lkj0s          e2o(nn5_{g,r<]e2vt50ess    es'_j@r+[j5s           ",
" e}p5<s         e}a>nn5)gf,['5em:55ss       em'/_)y~[nls          ",
" ee7<]s         2;b>n]5)yf,r@5sk<0ss        ee78u8,yrb]s          ",
"  emj5es       eeo>]nn5|,+,[@!3ee2s          lk/w$@frt0s          ",
"  ee%d3e       2-%(]]>]w[r,rzj]ss            29x$>6g,@0s          ",
"   eex^ee     lbo5(0((>=j@r,[@_]see    eee   l9%=>6{+@0s          ",
"    esx^eeee leob0|j[@6))6@[rzj)<bel222e7se  2-xn0rg+t0s          ",
"     eeb|x}ele4x_[,,,r[j_)j@rr@_//%h-a14~3e e2:^]0gg,b0s          ",
"       ee2x29.rz[[[z[rr[j'/6@[rj)uw=^^)@0(s lm;((dvf+53s          ",
"         eenee55]2'jj@rr[j_/j@[@_/w$w[y20se2i.n50,{rj(bee         ",
"            essss le_j@[r[j_)j@j_u86ff#02l29ol00>,r6)u)&se        ",
"                  sss&_j[r@j))__/@fvg,<0iaoa|d_j@66j_u))|<e       ",
"                    e}t_jz[6_)jrf{ggyr53s}<|j[[[rr@__)__6|le      ",
"                     l})/_@_)u@ygggg+p0eee<22|6j@rrju)j@zzd2s     ",
"                     es7u/__)ujfgggf,*0b   sees_j@rr_ur,,[@nes    ",
"                      l9u8u/u8_ggggf,35s     eei')jz[)z+yr[']s    ",
"                      e}#w8uu$6{gggf[0ls      ee%/)_j_)yf+r[5es   ",
"                      eeh$w8w$@vggf+x0s        es#u)__urgf,r|]s   ",
"                       2a$^==>[{ggg,]5s         eku8uu8jgf+rj0s   ",
"                       21$^^^>fgggfp0ls         emtw8u8/{gf,r0s   ",
"                       21$^=nwvggg,20s          ei7$^w=8g{y,r0s   ",
"                       2;>^^>jvggfp02s          esq$^^^wggf,r0s   ",
"                      e24>nn(f{gg,30s           esa>!^ndvgfyr0s   ",
"                      e}qnn('{ggf*0<s           em->nn>'{gg+[0s   ",
"                      l-x>](f{gfp03s            2-#nnn(rvgfyt0s   ",
"                     el4^]0jv{g~50ss           e2o]]>5(f{gf+25s   ",
"                     lm1((/{{g,30ss            2kq(]]0jvggfr03s   ",
"                    e24<0^{{g,]0ee            li.5(]0>g{g{y*0se   ",
"                    l9a0$gvg~30labee        e2io<(5((y{gggr03s    ",
"                   ls.0=fvyp]0eem/<eee    el29.<0]0>+{ggg+30ss    ",
"                  lso<df{+x50eseem/'}sl222s%41>(00|gvgggys0es     ",
"                 le4i)ffrl03ss  esi))#h-a;;-n000^~{{g{fyb02s      ",
"               e2sox[y,*502ss    eei__u=$>(0>='y{{gfffp302s       ",
"             ell%o'rrx503se        eesj[[z[r+fffy+y,[}50es        ",
"         eel2l94f@#b]03ess          eels&@[rrrrrr[#<503se         ",
"        eei71{c#<]553ess              eel232!<<l]]552sss          ",
"        saq%b5005less                    e el<eelesss             ",
"        ee3]3lbsss                           ssse                 ",
"          eess                                                    "};
