/* XPM */
static char * sndstretch_xmms_logo_xpm[] = {
"200 26 17 1",
" 	c None",
".	c #C7BEAD",
"+	c #BCB2A2",
"@	c #9A835B",
"#	c #83653E",
"$	c #B2A895",
"%	c #FDDA72",
"&	c #C59246",
"*	c #4E3C20",
"=	c #7D4B1E",
"-	c #655133",
";	c #F7C75A",
">	c #412810",
",	c #DB9B3C",
"'	c #251D0F",
")	c #ECA536",
"!	c #BB661C",
"                                                                                                                                                                                                        ",
"                                                                                                                                                                                                        ",
"                                              .+.+                                                                                                                                                      ",
"                                          .@@#@@@@@#@+                                                                                                                                                  ",
"                                         $#@.%%%%%%+@#$                            +++.                                                                +@@#@.@#@#$@#@#@##@+@##$ @@#@@##@$@@#@+ @###@@$  ",
"                                        @#+%%&**=+%%%@#$                       .@#-@#@-##$                                                            +@@$+@#@$.@@@$.@@.+##&.&#@@@.$#$.@#@$.#@#@.;.$@#  ",
"                                 $@@+  +#$%%@>-#->@%%;-@                      $-@+;%%%%+##@                                                           $##%%&#.%%@#;%;#%%%#$%%%-#&%%@,%%;-.%%+#@%;>=%@-  ",
"                              $#--@#@  ##%%%--$.$#-%%&*@                     $-@%%#''-;%%@-                                                            @-&%)$,=!>#;%!.&%%#;&%%*##%%#.;%)$,;%&-@%;--!*-  ",
"                           $#--@$%;*-  ##%%%@-@  ##%;'-$                     -@%%#>##**%%@-.                                                           .--%%+'-*-#%%&-&%;$'$%,*-$%;&>;%,@>%%=-#%%+--*#  ",
"                        @#*-#&.%%;>*#  #-%%%;#--.--='*-#@@+ +@@@$@@@@@@@+    *$%%#-@.--)%>-#@@@@@@@@@@@@@@$  @@@@@@@@@@@@@@@@@@@  @####$  $@@@  .@@@$   -*;%=-#@-@%%#*;%)>-%%=*-.%;>#%%&>@%%'-*,%%&--+  ",
"                   $@#--*#@.%%%%)'>#   #*)%%%;@----*------*@*---*--*----*@   *&%%)-*$#-,*>---*-*--*--*--*-*#-*--*-*--*--*-*-*--*-*--@#-*#@*--*- *--**+++#*$%)--@-$%;'-%%=>@%%>--%%!>$%;'*.%)'--*)%%-*   ",
"            +$@@-*-*--@&.%%%%;%;>*-    @**;%%%%,#**-.@-.%,*-*+%@*#%%%%%.-*#  *=%%%+-*-*>*%%%%%%%%,-%%%%%%;@**&%%%%%%%@@%%%%%%%%-*@.%%%;@*--;%=*$*$%&*#***@&%%*--*;;=*@%;'-&%,>-#%;'-)%!>-;%=-##**;%=*   ",
"     +$@-***>**-##$,;;%%%%;;%;%='-      ->>;;%%%%@-*@-*;%;***;;**#%;,,;%%**  *>,%;%;@****,,,%;),)**%;,,,)%;**&%),),),>=),)%;,))'#%%%,)%%-**%;>*#*)%=>--.)&')%,##-%%'*)%!>-;%&@>&%,'-%%>*#%;##@&*>,%>*   ",
"   +@#**-#@@$;.;;%%%%;%;;;%;;;;'*+       *>'!;;;;%)-***%;%=**;;>*&%='''&%!>@ $>',;%;%.-*>'''%)''''@%!'''')%**;%''''''>>''!%*'''*;;!'''!%,*-%)'-**;;>**>%!'*=;%&'@%)'-;;**>;;)'*;;=>#;;'*=%;!'&;@@;='*   ",
"   $@&&,);;;;;;%%;%;;;;;;;;;;;)'*    #**@ ->'>);;;;)*>#%)%&>*%)'>,%>>>>*;)'-$$@>'>);;%;#**>#%&'*->&%='>>*;%>>;;'>>>>**#**,%>>*>#%)''*>'='>#%!'*>*%;'**>>'>>'>''>>'''>>''>>'>''>>''*>'''*'>''>>'>>''>$   ",
"   +#-'''''''>>==!!);;%;%;;%;%!'#   ->-->  $*>'!;%;%#*!%!);>#%&'*;;'*.**%;'*>>#@*>'!;;%;**>!%!'@#*);###&.%)'-%;+,+,+#>$->;;>*#*,%='- #*>>*&%;;.;;;,'#$>>>@.*>>>=*>*-***>$->>>#->**-*>**@*>>*->*>>>*+    ",
"    +@@-*****>>''>'''>=!);;%;%&>#  ->@;*>    #*');;%!>,%>!%#!%=>*%;'*.>=%)'-+*>  #>'=;;%!**,%*>+**;%%%%%;,'>#%;%%%%%=>@*-%)'--*;;>>. #****)%))));%!'@                                                   ",
"              +$@#=**>>'''=!;;;>* $>#%;>>     @*=;%;>*;;>*%))%*>#%,'-#*&%!>;;'*    *>;%;>>*;;>*.>-%)'>,;='>*&;=''''''*$>#%,'##>;;>* #>-***;;''''&%*>$                                                   ",
"                     +@#*>>>'=)** #*;%%**#    $*=%%='-%;'>)%;;>*!%!>**-;%>@%;>*@   ->)%!'**%;'*+>@%!>>>;;***)%>>>>>**@$*&%=>@@>)%=***-%;*#%)'***;;>*                                                    ",
"                          #=>>''- @>);%)->****>*,%!'*=%,'*!%%)'*,%=--#;%!'!%%&**>*>*#%!'**#%,'#@*&%=>=>&%!**;;>=----*#-*)%** @*!%;--#;%!'!%!>#*=%;'*                                                    ",
"                            +###$ @**;%%;@##-#@;%='**,%!>**;%,>-;%;%%%%,'*>,;%;@##@.;!'*#*&%!>$#*;%**@**%;*#%%%%%%%%*--*;;>*  *';%%%%%&'*,%=*#*#%)'-                                                    ",
"                                   ->>,)%%%%%%;!''*#*!)>*->!)**=,,,,,!>'>-*'*!,;;))!''*$$*!)>*+-*,,>* ->!,==),,,,,,!'-#=,,'-  #>'!)),>'**&)>*@*!)=>@                                                    ",
"                                    -*''>>*>*'''**$$*>'>-@*>''*>''''''>*@ @**>''''''>*$ +*''>* #>''>- $*>'>>''''''''*@#>''>#   #*''''>*-*''>-+*>''*+                                                    ",
"                                     @#****>***=&   $#@#  $@#@$@@#@##@$     &#=####@+    $@@#   @#@@   $#@#@######@@@  @@@@     $####@  @@@@  +@#@$                                                     ",
"                                                                                                                                                                                                        ",
"                                                                                                                                                                                                        "};
